# xmcd
#
# Track frame offsets:
#      182
#      12742
#      25505
#      38897
#      52960
#      64472
#      77222
#      91415
#      103872
#      116125
#      130245
#      146060
#      158677
#      171932
#      186445
#      200362
#      213590
#      227620
#      240635
#      252870
#      266652
#      280485
#      294395
# 
# Disc length: 4122 seconds
#
# Revision: 2
# Processed by: cddbd v1.4PL0 Copyright (c) Steve Scherf et al.
#
# Submitted via: FreeRIP 1.21
#
DISCID=5b101817
DTITLE=Memphis Jug Band - Memphis Jug Band
DYEAR=1990
DGENRE=blues
TTITLE0=Lindberg Hop
TTITLE1=On The Road Again
TTITLE2=Stealin' Stealin'
TTITLE3=Insane Crazy Blues
TTITLE4=K.C. Moan
TTITLE5=Cocaine Habit Blues
TTITLE6=Newport News Blues - Take 1.
TTITLE7=Whitewash Station Blues
TTITLE8=The Old Folks Started It
TTITLE9=Everybody's Talking About Sadie Green
TTITLE10=Memphis Jug Blues - Take 1.
TTITLE11=Gator Wobble
TTITLE12=Little Green Slippers
TTITLE13=Taking Your Place
TTITLE14=Sometimes I Think I Love You
TTITLE15=Memphis Boy Blues
TTITLE16=Aunt Caroline Dyer Blues
TTITLE17=What's The Matter?
TTITLE18=Oh Ambulance Man
TTITLE19=Beale Street Mess Around
TTITLE20=She Stays Out All Night Long
TTITLE21=You May Leave But This Will Bring You Back
TTITLE22=Fourth Street Mess Around
EXTD=Yazoo 1067
EXTT0=1928
EXTT1=1928
EXTT2=1928
EXTT3=1934
EXTT4=1929
EXTT5=1930
EXTT6=1927
EXTT7=1928
EXTT8=1929
EXTT9=1930
EXTT10=1927
EXTT11=1934
EXTT12=1934
EXTT13=1929
EXTT14=1927
EXTT15=1927
EXTT16=1930
EXTT17=1929
EXTT18=1930
EXTT19=1927
EXTT20=1928
EXTT21=1930
EXTT22=1930
PLAYORDER=
